<?xml version="1.0" encoding="UTF-8"?>
<svg id="Layer_1" data-name="Layer 1" xmlns="http://www.w3.org/2000/svg" viewBox="0 0 195 105">
  <defs>
    <style>
      .cls-1 {
        fill: #e2c7a1;
      }
    </style>
  </defs>
  <path class="cls-1" d="M191.32,51.69c0-.15-.01-.29-.02-.44-.32-4.27-3.9-7.67-8.25-7.67h-4.28c-6.72-.39-13.73-.26-20.82,0h-36.43s-.03,0-.04,0h-6.14c-.82,0-1.48-.67-1.48-1.48s.67-1.48,1.48-1.48h3.34s.07,0,.11,0h54.3c4.72,0,8.59-3.86,8.59-8.59s-3.86-8.59-8.59-8.59h-.11c-.09,0-.18-.02-.28-.03l-76.63.03c-.71,10.21-4.17,19.88-11.99,26.83-1.49,1.33-6.37,5.73-7.67,3.77-.92-1.38,6.5-6.08,8.36-8.16,3.15-3.52,6.12-9.43,7.27-13.98,1.07-4.26.74-8.22,1.95-12.28,2.2-2.16,31.11.05,36.28-.96,6.52-1.44,7.01-14.63-2.54-15.7-10.91-1.22-33.95-2.41-44.99-.03-17.48,3.77-33.2,16.25-41.67,31.33-12.87.74-29.21-.11-39.09.53h-.45c-.83,0-1.5.67-1.5,1.5v42.16c0,1.21.98,2.19,2.19,2.19h3.26l36.87.45h0c14.16,18.34,34.46,20.81,55.91,20.54.11,0,.22.02.33.02h51.46c4.89,0,8.89-4,8.89-8.89s-4-8.89-8.89-8.89h-38.64c-.87,0-1.59-.71-1.59-1.59v-.04c0-.87.71-1.59,1.59-1.59h61.51c4.83,0,8.78-3.95,8.78-8.78s-3.95-8.78-8.78-8.78h-58.34s0,0,0,0c-.79-.03-1.42-.68-1.42-1.48s.67-1.48,1.48-1.48h68.43c4.38,0,7.99-3.45,8.26-7.77.01-.14.02-.28.02-.42,0-.03,0-.06,0-.1,0-.06,0-.12,0-.17Z"/>
</svg>