<?xml version="1.0" encoding="UTF-8"?>
<svg id="Layer_1" data-name="Layer 1" xmlns="http://www.w3.org/2000/svg" viewBox="0 0 105 195">
  <defs>
    <style>
      .cls-1 {
        fill: #e2c7a1;
      }
    </style>
  </defs>
  <path class="cls-1" d="M52.43,3.68c.15,0,.29.01.44.02,4.27.32,7.67,3.9,7.67,8.25v4.28c.39,6.72.26,13.73,0,20.82v36.43s0,.03,0,.04v6.14c0,.82.67,1.48,1.48,1.48s1.48-.67,1.48-1.48v-3.34s0-.07,0-.11V21.92c0-4.72,3.86-8.59,8.59-8.59s8.59,3.86,8.59,8.59v.11c0,.09.02.18.03.28l-.03,76.63c-10.21.71-19.88,4.17-26.83,11.99-1.33,1.49-5.73,6.37-3.77,7.67,1.38.92,6.08-6.5,8.16-8.36,3.52-3.15,9.43-6.12,13.98-7.27,4.26-1.07,8.22-.74,12.28-1.95,2.16-2.2-.05-31.11.96-36.28,1.44-6.52,14.63-7.01,15.7,2.54,1.22,10.91,2.41,33.95.03,44.99-3.77,17.48-16.25,33.2-31.33,41.67-.74,12.87.11,29.21-.53,39.09v.45c0,.83-.67,1.5-1.5,1.5H25.65c-1.21,0-2.19-.98-2.19-2.19v-3.26s-.45-36.87-.45-36.87h0C4.67,138.52,2.2,118.22,2.47,96.77c0-.11-.02-.22-.02-.33v-51.46c0-4.89,4-8.89,8.89-8.89,4.89,0,8.89,4,8.89,8.89v38.64c0,.87.71,1.59,1.59,1.59h.04c.87,0,1.59-.71,1.59-1.59v-1.16s0-41.37,0-41.37v-18.98c0-4.83,3.95-8.78,8.78-8.78,4.83,0,8.78,3.95,8.78,8.78v42.36s0,15.92,0,15.92v.06s0,0,0,0c.03.79.68,1.42,1.48,1.42s1.48-.67,1.48-1.48v-3.87s0-12.05,0-12.05V11.96c0-4.38,3.45-7.99,7.77-8.26.14-.01.28-.02.42-.02.03,0,.06,0,.1,0,.06,0,.12,0,.17,0Z"/>
</svg>