<?xml version="1.0" encoding="UTF-8"?>
<svg id="Layer_1" xmlns="http://www.w3.org/2000/svg" version="1.1" viewBox="0 0 195 105">
  <!-- Generator: Adobe Illustrator 29.0.1, SVG Export Plug-In . SVG Version: 2.1.0 Build 192)  -->
  <defs>
    <style>
      .st0 {
        fill: #a7b4b6;
      }
    </style>
  </defs>
  <path class="st0" d="M90.5,79.5c7.9-3.1,8-11.9,4-18.5,9.2-3.3,7.4-15.7,9.9-23.4l2.3,5.7c4.4,8.9,12.6,12.6,22.2,13.3,1.3,0,5.2.7,5.2-1.3s-4.7-1.2-6.3-1.4c-12.5-1.4-19-7.8-21.1-19.9-.2-1.4.6-4.6-1.4-4.6-1.4.1-1.6,1.5-1.9,2.5-1.9,5.9-2.3,18.7-5.3,23.1-4.8,7.2-16.1,6.4-20.4,1-2.3-2.9-2.1-5.7-1.8-9.4.5-6.4,5-29.7,7.2-35.3,6.2-15,25.5-7.1,37.1-3.3,11.9,4,22.9,9.5,26.6,22.4h38.6c.2.1.3.2.5.2h0c0-.1,5.5-.1,5.5-.1,2,0,3.7,1.1,3.7,2.5v48.7c0,1-1.1,1.7-2.5,1.7h-6.7s-39.3.5-39.3.5c-5.9,9.4-14.5,14.4-25.4,17.2-.9.2-3.2.5-4.8.7-1.5.2-3.1.3-4.7.1l-17-.3s5.3-.2,6.9-6.2c.9-3.5,1.1-7.2-.6-10.5-1.5-2.9-4.6-6-10.4-5.6h0Z"/>
  <path class="st0" d="M75.1,56.7c-4.1-4.7-.6-20.2-.6-20.2h-1.9c-.7.2-.5,0-4.5,0h-22.5c-4,0-7.2,4.2-7.2,9.3v1.7c0,5.1,3.2,9.3,7.2,9.3h20.9l8.8-.2h0Z"/>
  <path class="st0" d="M78.6,14.5c-1.2-.7-2.3-.5-3.6-.7-1.3-.2-2.7-.3-4.1-.4-.2,0-.4,0-.6,0h-21.4c-3.7,0-6.7,4.3-6.7,9.6v1c0,5.3,3,9.6,6.7,9.6l25.9.2c.7-.6,3.1-16.7,3.7-19.3h0Z"/>
  <path class="st0" d="M94.7,70.1s-.4-5.1-2.8-7.3c0,0-8.6,1.8-15-3.4h-19.6c-4.4,0-8.1,4.3-8,9.7,0,5.4,3.7,9.7,8.1,9.7h29c4.4-.1,8.5-3.4,8.4-8.7h0Z"/>
  <rect class="st0" x="54.2" y="81.5" width="45.2" height="19.2" rx="9.5" ry="9.5"/>
</svg>