<?xml version="1.0" encoding="UTF-8"?>
<svg id="Layer_1" xmlns="http://www.w3.org/2000/svg" version="1.1" viewBox="0 0 105 195">
  <!-- Generator: Adobe Illustrator 29.0.1, SVG Export Plug-In . SVG Version: 2.1.0 Build 192)  -->
  <defs>
    <style>
      .st0 {
        fill: #a7b4b6;
      }
    </style>
  </defs>
  <path class="st0" d="M25.4,90.4c3.1,7.9,11.9,8,18.5,4,3.3,9.2,15.7,7.4,23.4,9.9l-5.7,2.3c-8.8,4.4-12.7,12.6-13.3,22.2,0,1.3-.7,5.2,1.3,5.2s1.2-4.7,1.4-6.3c1.4-12.5,7.8-19,19.9-21.1,1.4-.2,4.6.6,4.6-1.4-.1-1.4-1.5-1.6-2.5-1.9-5.9-1.9-18.7-2.3-23.1-5.3-7.2-4.8-6.4-16.1-1-20.4,2.9-2.3,5.7-2.1,9.4-1.8,6.4.5,29.7,5,35.3,7.2,15,6.2,7.1,25.5,3.3,37.1-4,11.9-9.5,22.9-22.4,26.6v38.6c-.1.2-.2.3-.2.5h0v5.5c0,2-1.1,3.7-2.5,3.7H23.2c-1,0-1.7-1.1-1.7-2.5v-6.7h0l-.5-39.3c-9.4-5.9-14.4-14.5-17.2-25.4-.2-.9-.5-3.2-.7-4.8-.2-1.5-.3-3.1-.1-4.7l.3-17s.2,5.3,6.2,6.9c3.5.9,7.2,1.1,10.5-.6,2.9-1.5,6-4.6,5.6-10.4h0Z"/>
  <path class="st0" d="M48.2,75c4.7-4.1,20.2-.6,20.2-.6v-1.9c-.2-.7,0-.5,0-4.5v-22.5c0-4-4.2-7.2-9.3-7.2h-1.7c-5.1,0-9.3,3.2-9.3,7.2v20.9l.2,8.8h0Z"/>
  <path class="st0" d="M90.5,78.5c.7-1.2.5-2.3.7-3.6.2-1.3.3-2.7.4-4.1,0-.2,0-.4,0-.6v-21.4c0-3.7-4.3-6.7-9.6-6.7h-1c-5.3,0-9.6,3-9.6,6.7l-.2,25.9c.6.7,16.7,3.1,19.3,3.7h0Z"/>
  <path class="st0" d="M34.9,94.6s5.1-.4,7.3-2.8c0,0-1.8-8.6,3.4-15v-19.6c0-4.4-4.3-8.1-9.7-8s-9.7,3.7-9.7,8.1v29c.1,4.4,3.4,8.5,8.7,8.4h0Z"/>
  <rect class="st0" x="4.3" y="54.1" width="19.2" height="45.2" rx="9.5" ry="9.5"/>
</svg>