<?xml version="1.0" encoding="UTF-8"?>
<svg id="Layer_1" data-name="Layer 1" xmlns="http://www.w3.org/2000/svg" viewBox="0 0 100 150">
  <defs>
    <style>
      .cls-1 {
        fill: #de8f7d;
      }

      .cls-2 {
        stroke: #515d6f;
        stroke-width: 2.66px;
      }

      .cls-2, .cls-3 {
        fill: none;
        stroke-miterlimit: 10;
      }

      .cls-3 {
        stroke: #fff;
        stroke-width: 2.11px;
      }

      .cls-4 {
        fill: #515d6f;
      }
    </style>
  </defs>
  <g>
    <path class="cls-1" d="M50.05,25.85c.51-.23,1.02-.3,1.57-.27,1.94.09,4.25.97,6.22,1.21l.24-.11,3.36-17.1c.27-2.1-1.78-3.61-3.71-2.62-.95.49-1.08,1.18-1.32,2.11-1.14,4.46-1.62,9.28-2.72,13.76l-.08.25h-.51s-1.29-16.77-1.29-16.77c-.58-1.76-2.6-2.49-4.08-1.26-1.06.88-.88,2.16-.84,3.43.1,3.24.61,6.59.79,9.88.04.85.22,1.68.51,2.48l1.87,5.01Z"/>
    <path class="cls-1" d="M42.43,36.34c1.52.99,3.72.13,3.69-2.01-.02-1.26-.79-2.33-1.21-3.46-.65-1.75-1.24-3.53-1.88-5.28-.35-.95-1.25-1.65-2.27-1.62-.11,0-.21.01-.32.03-1.52.25-2.18,1.72-1.82,3.13l2.93,8.05c.17.47.46.89.88,1.16Z"/>
    <path class="cls-1" d="M49,32.16c-1.36-1.17-1.65-3.31-.71-4.83.26-.42.99-.86.94-1.28-.81-1.65-1.18-4.08-2.09-5.62-.51-.86-1.42-1.32-2.43-1.21-1.44.16-2.42,1.62-2.14,3.03,1.3,2.6,1.89,6.51,3.26,8.96.59,1.04,2.12,1.71,3.16.96Z"/>
    <path class="cls-1" d="M56.71,55.19v-.87s.07-10.22.07-10.22c3.12-1.12,4.02-3.87,4.75-6.81.38-1.54,1.21-4.76.99-6.21-.43-2.94-3.12-3.11-5.45-3.61-1.38-.3-5.19-1.19-6.36-.99-2.53.44-3.04,4.64-.59,5.6,1.6.63,3.84.56,5.46,1.13.18.06.57.17.52.44-.11.49-1.15.3-1.54.38-2.43.49-4,1.84-4.46,4.33-.12.63-.07,1.43-.17,2.02-.09.52-.49.46-.56-.13-.21-1.92.61-4.35,2.14-5.56.67-.54,1.47-.72,2.13-1.24-1.12.04-2.64-.67-3.66-.68-.46,0-1.15.47-1.79.49-.48.01-1.11-.16-1.56-.36,1.6,3.86-3.71,6.51-5.57,2.61-.97-2.03-1.59-4.63-2.43-6.77-.07-.18-.17-.62-.38-.65v.93c0,.72,0,1.44,0,2.16v2.43c0,.59,0,1.17,0,1.76,0,.65.15,1.25.33,1.86.14.5.3.99.48,1.47,0,0,0,.02.01.03.84,2.17,2.32,3.72,4.24,4.96l.15,10.56s.02.04.03.06h-.05v1.06c0,.22.19.4.43.4h12.21c.35,0,.63-.26.63-.59Z"/>
  </g>
  <path class="cls-3" d="M23.15,57.78c14.37-2.11,31.94-3.03,51.02-.43"/>
  <rect class="cls-2" x="8.4" y="55.63" width="80.52" height="88.45" rx="13.53" ry="13.53"/>
  <g>
    <g>
      <path class="cls-4" d="M21.71,83.94c-.82-.45-1.46-1.06-1.91-1.85s-.68-1.69-.68-2.71v-.76l3.22-.33v.79c0,.77.19,1.38.57,1.82.38.45.91.67,1.58.67s1.17-.18,1.56-.55c.39-.36.58-.86.58-1.49,0-.69-.21-1.35-.62-1.98-.41-.63-1.23-1.5-2.45-2.62-1.64-1.5-2.77-2.75-3.37-3.74-.6-.99-.9-2.08-.9-3.25,0-1.6.45-2.87,1.36-3.82.91-.94,2.15-1.41,3.73-1.41s2.82.48,3.73,1.43c.91.95,1.36,2.23,1.36,3.83v.55l-3.22.33v-.61c0-.81-.16-1.43-.47-1.85s-.77-.64-1.36-.64-1.04.17-1.36.52c-.32.35-.47.85-.47,1.52s.21,1.31.63,1.93c.42.62,1.23,1.51,2.43,2.66,1.64,1.58,2.77,2.85,3.37,3.82s.9,2.02.9,3.18c0,1.01-.23,1.92-.68,2.71-.45.79-1.09,1.41-1.91,1.85s-1.76.67-2.81.67-1.99-.22-2.81-.67Z"/>
      <path class="cls-4" d="M32.2,63.02h10.68v3.04h-3.67v18.25h-3.35v-18.25h-3.67v-3.04Z"/>
      <path class="cls-4" d="M46.07,63.02h9.51v3.04h-6.16v5.93h4.9v3.04h-4.9v6.23h6.16v3.04h-9.51v-21.29Z"/>
      <path class="cls-4" d="M59,63.02h3.35v21.29h-3.35v-21.29Z"/>
      <path class="cls-4" d="M66.61,63.02h3.7l4.27,14.29v-14.29h3.29v21.29h-3.54l-4.42-13.62v13.62h-3.29v-21.29Z"/>
    </g>
    <g>
      <path class="cls-4" d="M21.1,110.92c-.96-.5-1.7-1.18-2.23-2.06-.53-.88-.79-1.88-.79-3.01v-.84l3.76-.37v.88c0,.86.22,1.53.66,2.03.44.5,1.06.74,1.84.74s1.37-.2,1.82-.61c.45-.41.68-.96.68-1.66,0-.77-.24-1.5-.72-2.2-.48-.7-1.43-1.67-2.86-2.91-1.92-1.67-3.22-3.05-3.93-4.16-.7-1.11-1.05-2.31-1.05-3.62,0-1.78.53-3.2,1.59-4.24,1.06-1.05,2.51-1.57,4.35-1.57s3.29.53,4.35,1.59c1.06,1.06,1.58,2.48,1.58,4.26v.61l-3.76.37v-.68c0-.9-.18-1.59-.55-2.06-.37-.47-.9-.71-1.59-.71s-1.22.19-1.58.58-.55.95-.55,1.69.25,1.46.74,2.15c.49.69,1.44,1.67,2.84,2.96,1.92,1.76,3.22,3.17,3.93,4.24.7,1.07,1.05,2.25,1.05,3.53,0,1.13-.26,2.13-.79,3.01-.53.88-1.27,1.57-2.23,2.06-.96.5-2.05.74-3.28.74s-2.32-.25-3.28-.74Z"/>
      <path class="cls-4" d="M42.4,106.08h-4.2l-.85,5.24h-3.91l4.27-23.67h5.23l4.27,23.67h-3.98l-.85-5.24ZM41.89,102.64l-1.58-9.91-1.59,9.91h3.17Z"/>
      <path class="cls-4" d="M56.33,101.59l-1.47,2.6v7.13h-3.91v-23.67h3.91v9.6l5.16-9.6h4.2l-5.49,10.04,5.9,13.62h-4.2l-4.09-9.74Z"/>
      <path class="cls-4" d="M70.15,110.92c-.96-.5-1.7-1.18-2.23-2.06-.53-.88-.79-1.88-.79-3.01v-.84l3.76-.37v.88c0,.86.22,1.53.66,2.03.44.5,1.06.74,1.84.74s1.37-.2,1.82-.61c.45-.41.68-.96.68-1.66,0-.77-.24-1.5-.72-2.2-.48-.7-1.43-1.67-2.86-2.91-1.92-1.67-3.22-3.05-3.93-4.16-.7-1.11-1.05-2.31-1.05-3.62,0-1.78.53-3.2,1.59-4.24,1.06-1.05,2.51-1.57,4.35-1.57s3.29.53,4.35,1.59c1.06,1.06,1.58,2.48,1.58,4.26v.61l-3.76.37v-.68c0-.9-.18-1.59-.55-2.06-.37-.47-.9-.71-1.59-.71s-1.22.19-1.58.58-.55.95-.55,1.69.25,1.46.74,2.15c.49.69,1.44,1.67,2.84,2.96,1.92,1.76,3.22,3.17,3.93,4.24.7,1.07,1.05,2.25,1.05,3.53,0,1.13-.26,2.13-.79,3.01-.53.88-1.27,1.57-2.23,2.06-.96.5-2.05.74-3.28.74s-2.32-.25-3.28-.74Z"/>
    </g>
    <g>
      <path class="cls-4" d="M19.68,114.94h5.26c1.6,0,2.88.45,3.83,1.35.95.9,1.43,2.11,1.43,3.61v2.44c0,1.51-.47,2.71-1.43,3.62-.95.9-2.23,1.35-3.83,1.35h-1.9v8.45h-3.36v-20.83ZM24.78,124.34c.65,0,1.16-.17,1.52-.51.36-.34.54-.81.54-1.43v-2.56c0-.61-.18-1.09-.54-1.43s-.87-.51-1.52-.51h-1.74v6.43h1.74Z"/>
      <path class="cls-4" d="M39.04,131.15h-3.61l-.73,4.61h-3.36l3.67-20.83h4.5l3.67,20.83h-3.42l-.73-4.61ZM38.59,128.12l-1.36-8.72-1.36,8.72h2.72Z"/>
      <path class="cls-4" d="M46.38,114.94h5.26c1.6,0,2.88.45,3.83,1.35.95.9,1.43,2.11,1.43,3.61v2.44c0,1.51-.47,2.71-1.43,3.62-.95.9-2.23,1.35-3.83,1.35h-1.9v8.45h-3.36v-20.83ZM51.48,124.34c.65,0,1.16-.17,1.52-.51.36-.34.54-.81.54-1.43v-2.56c0-.61-.18-1.09-.54-1.43s-.87-.51-1.52-.51h-1.74v6.43h1.74Z"/>
      <path class="cls-4" d="M60.32,114.94h3.36v20.83h-3.36v-20.83Z"/>
      <path class="cls-4" d="M75.49,135.76l-2.44-8.6h-1.74v8.6h-3.36v-20.83h5.26c1.6,0,2.88.45,3.83,1.35.95.9,1.43,2.11,1.43,3.61v2.29c0,.95-.2,1.8-.6,2.53-.4.73-.97,1.31-1.71,1.73l2.82,9.31h-3.48ZM71.31,124.19h1.74c.65,0,1.16-.17,1.52-.51s.54-.81.54-1.43v-2.41c0-.61-.18-1.09-.54-1.43s-.87-.51-1.52-.51h-1.74v6.28Z"/>
    </g>
  </g>
</svg>