<?xml version="1.0" encoding="UTF-8"?>
<svg id="Layer_1" data-name="Layer 1" xmlns="http://www.w3.org/2000/svg" viewBox="0 0 195 105">
  <defs>
    <style>
      .cls-1 {
        fill: #de8f7d;
      }
    </style>
  </defs>
  <path class="cls-1" d="M111.97,53.79c.85-1.9,1.12-3.81,1.03-5.89-.34-7.27-3.63-15.9-4.53-23.27l.4-.91,64.01-12.58c7.86-1.01,13.51,6.65,9.79,13.9-1.82,3.55-4.42,4.06-7.9,4.95-16.68,4.27-34.71,6.05-51.51,10.19l-.94.32v1.92s62.77,4.81,62.77,4.81c6.59,2.18,9.31,9.72,4.7,15.27-3.3,3.97-8.08,3.3-12.83,3.15-12.13-.39-24.68-2.3-36.97-2.95-3.17-.17-6.29-.81-9.26-1.91l-18.76-6.99Z"/>
  <path class="cls-1" d="M72.71,82.32c-3.69-5.68-.47-13.94,7.53-13.82,4.72.07,8.73,2.97,12.96,4.54,6.55,2.44,13.2,4.63,19.77,7.03,3.57,1.31,6.19,4.68,6.05,8.48-.01.4-.05.8-.12,1.19-.92,5.67-6.43,8.15-11.72,6.83l-30.14-10.98c-1.74-.63-3.33-1.72-4.34-3.28Z"/>
  <path class="cls-1" d="M88.38,57.71c4.36,5.1,12.37,6.19,18.09,2.66,1.57-.97,3.21-3.7,4.79-3.5,6.19,3.02,15.27,4.4,21.03,7.81,3.23,1.91,4.95,5.31,4.54,9.08-.58,5.37-6.06,9.07-11.32,7.99-9.73-4.88-24.37-7.06-33.54-12.2-3.91-2.19-6.39-7.95-3.58-11.83Z"/>
  <path class="cls-1" d="M2.19,28.87h3.26l38.24-.25c4.21-11.69,14.47-15.06,25.49-17.78,5.76-1.42,17.82-4.51,23.26-3.72,11,1.62,11.63,11.68,13.51,20.41,1.11,5.16,4.47,19.41,3.71,23.81-1.63,9.47-17.36,11.37-20.97,2.2-2.36-5.99-2.11-14.37-4.23-20.45-.23-.66-.65-2.15-1.64-1.93-1.83.4-1.13,4.3-1.43,5.77-1.84,9.1-6.87,14.98-16.19,16.71-2.36.44-5.33.27-7.57.65-1.95.33-1.71,1.83.49,2.08,7.18.8,16.27-2.29,20.83-8.01,2.01-2.53,2.71-5.5,4.63-7.96-.16,4.17,2.52,9.86,2.54,13.69,0,1.74-1.76,4.29-1.83,6.69-.05,1.79.6,4.17,1.35,5.83-14.46-5.98-24.38,13.88-9.78,20.84,7.6,3.62,17.31,5.96,25.32,9.11.69.27,2.32.63,2.44,1.41h-27.25c-2.42,0-4.67-.55-6.98-1.23-1.86-.54-3.71-1.12-5.52-1.81-.03-.01-.07-.03-.1-.04-8.12-3.14-13.91-8.67-18.57-15.87l-39.51-.58c-.09-.03-.16-.08-.24-.11v.19H1.5c-.83,0-1.5-.73-1.5-1.62V31.25c0-1.31.98-2.37,2.19-2.37Z"/>
</svg>